<svg width="20" height="20" viewBox="0 0 16 16" fill="none" xmlns="http://www.w3.org/2000/svg"><path d="M12.4999 9.49999C12.058 9.49976 11.6285 9.64665 11.2793 9.91749L9.83493 8.79249C9.94397 8.54252 10.0001 8.27271 9.99993 7.99999C9.99993 7.95374 9.99993 7.90749 9.99493 7.86187L10.8218 7.58624C11.0834 7.98971 11.4816 8.28541 11.9435 8.4192C12.4053 8.55299 12.8999 8.5159 13.3367 8.31472C13.7734 8.11354 14.1231 7.76175 14.3216 7.32378C14.5201 6.88581 14.5541 6.39099 14.4175 5.92996C14.2809 5.46892 13.9828 5.07254 13.5777 4.81341C13.1726 4.55429 12.6878 4.44978 12.2119 4.51901C11.7361 4.58825 11.3011 4.82661 10.9867 5.19042C10.6723 5.55423 10.4995 6.01914 10.4999 6.49999C10.4999 6.54624 10.4999 6.59249 10.5049 6.63812L9.67805 6.91374C9.49679 6.63351 9.24828 6.4031 8.95517 6.2435C8.66206 6.0839 8.33367 6.00019 7.99993 5.99999C7.88957 6.00022 7.77942 6.00942 7.67055 6.02749L7.24305 5.06249C7.61219 4.76755 7.86498 4.35144 7.95662 3.88792C8.04827 3.4244 7.97285 2.94339 7.74373 2.53017C7.51461 2.11694 7.14658 1.79818 6.70489 1.63037C6.26319 1.46257 5.77635 1.45657 5.33065 1.61342C4.88495 1.77028 4.50918 2.07987 4.26994 2.48732C4.03069 2.89477 3.94343 3.37377 4.02362 3.83941C4.1038 4.30505 4.34625 4.72727 4.708 5.03122C5.06975 5.33518 5.52743 5.50125 5.99993 5.49999C6.11028 5.49976 6.22044 5.49057 6.3293 5.47249L6.7568 6.43499C6.39428 6.72192 6.14266 7.12585 6.04496 7.57775C5.94726 8.02964 6.00955 8.50144 6.22118 8.91249L4.6143 10.34C4.20992 10.0674 3.71999 9.9516 3.23635 10.0144C2.7527 10.0771 2.30856 10.3141 1.98716 10.6809C1.66575 11.0478 1.48916 11.5192 1.49049 12.0069C1.49181 12.4946 1.67095 12.965 1.99433 13.3301C2.31772 13.6952 2.76314 13.9298 3.24712 13.9899C3.73109 14.0501 4.22038 13.9316 4.62329 13.6568C5.02619 13.382 5.31504 12.9697 5.43569 12.4972C5.55634 12.0246 5.50052 11.5243 5.27868 11.09L6.88555 9.66249C7.23347 9.89675 7.64639 10.0154 8.06559 10.0014C8.48479 9.98753 8.88893 9.8418 9.22055 9.58499L10.6649 10.71C10.5562 10.9592 10.5001 11.2281 10.4999 11.5C10.4999 11.8956 10.6172 12.2822 10.837 12.6111C11.0568 12.94 11.3691 13.1964 11.7346 13.3478C12.1 13.4991 12.5021 13.5387 12.8901 13.4616C13.2781 13.3844 13.6344 13.1939 13.9141 12.9142C14.1938 12.6345 14.3843 12.2781 14.4615 11.8902C14.5387 11.5022 14.4991 11.1001 14.3477 10.7346C14.1963 10.3692 13.94 10.0568 13.6111 9.83705C13.2822 9.61729 12.8955 9.49999 12.4999 9.49999ZM12.4999 5.49999C12.6977 5.49999 12.891 5.55864 13.0555 5.66852C13.2199 5.7784 13.3481 5.93458 13.4238 6.11731C13.4995 6.30004 13.5193 6.5011 13.4807 6.69508C13.4421 6.88906 13.3469 7.06725 13.207 7.2071C13.0672 7.34695 12.889 7.44219 12.695 7.48078C12.501 7.51936 12.3 7.49956 12.1172 7.42387C11.9345 7.34819 11.7783 7.22001 11.6685 7.05556C11.5586 6.89111 11.4999 6.69777 11.4999 6.49999C11.4999 6.23478 11.6053 5.98042 11.7928 5.79289C11.9804 5.60535 12.2347 5.49999 12.4999 5.49999ZM4.99993 3.49999C4.99993 3.30221 5.05858 3.10887 5.16846 2.94442C5.27834 2.77997 5.43452 2.6518 5.61724 2.57611C5.79997 2.50043 6.00104 2.48062 6.19502 2.51921C6.389 2.55779 6.56718 2.65303 6.70703 2.79289C6.84689 2.93274 6.94213 3.11092 6.98071 3.3049C7.0193 3.49888 6.99949 3.69995 6.92381 3.88268C6.84812 4.0654 6.71995 4.22158 6.5555 4.33146C6.39105 4.44134 6.19771 4.49999 5.99993 4.49999C5.73471 4.49999 5.48036 4.39464 5.29282 4.2071C5.10528 4.01956 4.99993 3.76521 4.99993 3.49999ZM3.49993 13C3.30215 13 3.10881 12.9413 2.94436 12.8315C2.77991 12.7216 2.65173 12.5654 2.57605 12.3827C2.50036 12.2 2.48056 11.9989 2.51914 11.8049C2.55773 11.6109 2.65297 11.4327 2.79282 11.2929C2.93267 11.153 3.11085 11.0578 3.30484 11.0192C3.49882 10.9806 3.69988 11.0004 3.88261 11.0761C4.06534 11.1518 4.22151 11.28 4.3314 11.4444C4.44128 11.6089 4.49993 11.8022 4.49993 12C4.49993 12.2652 4.39457 12.5196 4.20703 12.7071C4.0195 12.8946 3.76514 13 3.49993 13ZM6.99993 7.99999C6.99993 7.80221 7.05858 7.60887 7.16846 7.44442C7.27834 7.27997 7.43452 7.1518 7.61724 7.07611C7.79997 7.00043 8.00104 6.98062 8.19502 7.01921C8.389 7.05779 8.56718 7.15303 8.70703 7.29289C8.84689 7.43274 8.94213 7.61092 8.98071 7.8049C9.0193 7.99888 8.99949 8.19995 8.92381 8.38268C8.84812 8.5654 8.71995 8.72158 8.5555 8.83146C8.39105 8.94134 8.19771 8.99999 7.99993 8.99999C7.73471 8.99999 7.48036 8.89464 7.29282 8.7071C7.10528 8.51956 6.99993 8.26521 6.99993 7.99999ZM12.4999 12.5C12.3021 12.5 12.1088 12.4413 11.9444 12.3315C11.7799 12.2216 11.6517 12.0654 11.576 11.8827C11.5004 11.7 11.4806 11.4989 11.5191 11.3049C11.5577 11.1109 11.653 10.9327 11.7928 10.7929C11.9327 10.653 12.1109 10.5578 12.3048 10.5192C12.4988 10.4806 12.6999 10.5004 12.8826 10.5761C13.0653 10.6518 13.2215 10.78 13.3314 10.9444C13.4413 11.1089 13.4999 11.3022 13.4999 11.5C13.4999 11.7652 13.3946 12.0196 13.207 12.2071C13.0195 12.3946 12.7651 12.5 12.4999 12.5Z" fill="#464646"></path></svg>