<svg width="20" height="20" viewBox="0 0 24 24" fill="none" xmlns="http://www.w3.org/2000/svg"><path d="M22.2806 16.7198C22.3504 16.7894 22.4057 16.8722 22.4434 16.9632C22.4812 17.0543 22.5006 17.1519 22.5006 17.2504C22.5006 17.349 22.4812 17.4466 22.4434 17.5376C22.4057 17.6287 22.3504 17.7114 22.2806 17.781L20.0306 20.031C19.8899 20.1718 19.699 20.2508 19.5 20.2508C19.301 20.2508 19.1101 20.1718 18.9694 20.031C18.8286 19.8903 18.7496 19.6994 18.7496 19.5004C18.7496 19.3014 18.8286 19.1105 18.9694 18.9698L19.9397 18.0004H16.1362C15.8978 18.0001 15.6629 17.943 15.4509 17.8338C15.239 17.7245 15.0561 17.5663 14.9175 17.3723L7.86375 7.50042H3C2.80109 7.50042 2.61032 7.4214 2.46967 7.28075C2.32902 7.14009 2.25 6.94933 2.25 6.75042C2.25 6.5515 2.32902 6.36074 2.46967 6.22009C2.61032 6.07943 2.80109 6.00042 3 6.00042H7.86375C8.1022 6.00071 8.33714 6.05784 8.54909 6.16708C8.76105 6.27632 8.9439 6.43451 9.0825 6.62854L16.1362 16.5004H19.9397L18.9694 15.531C18.8286 15.3903 18.7496 15.1994 18.7496 15.0004C18.7496 14.8014 18.8286 14.6105 18.9694 14.4698C19.1101 14.3291 19.301 14.25 19.5 14.25C19.699 14.25 19.8899 14.3291 20.0306 14.4698L22.2806 16.7198ZM13.4062 10.0317C13.4864 10.0889 13.577 10.1298 13.673 10.152C13.7689 10.1743 13.8683 10.1774 13.9655 10.1612C14.0626 10.145 14.1557 10.1098 14.2392 10.0577C14.3228 10.0055 14.3953 9.93744 14.4525 9.85729L16.14 7.50229H19.9434L18.9694 8.46979C18.8286 8.61052 18.7496 8.80139 18.7496 9.00042C18.7496 9.19944 18.8286 9.39031 18.9694 9.53104C19.1101 9.67177 19.301 9.75083 19.5 9.75083C19.699 9.75083 19.8899 9.67177 20.0306 9.53104L22.2806 7.28104C22.3504 7.21139 22.4057 7.12867 22.4434 7.03762C22.4812 6.94657 22.5006 6.84898 22.5006 6.75042C22.5006 6.65186 22.4812 6.55426 22.4434 6.46321C22.4057 6.37216 22.3504 6.28945 22.2806 6.21979L20.0306 3.96979C19.8899 3.82906 19.699 3.75 19.5 3.75C19.301 3.75 19.1101 3.82906 18.9694 3.96979C18.8286 4.11052 18.7496 4.30139 18.7496 4.50042C18.7496 4.69944 18.8286 4.89031 18.9694 5.03104L19.9397 6.00042H16.1362C15.8978 6.00071 15.6629 6.05784 15.4509 6.16708C15.239 6.27632 15.0561 6.43451 14.9175 6.62854L13.2328 8.98354C13.1752 9.06369 13.134 9.15443 13.1116 9.25053C13.0891 9.34664 13.0858 9.44624 13.102 9.54361C13.1181 9.64098 13.1532 9.73421 13.2055 9.81796C13.2577 9.90172 13.3259 9.97434 13.4062 10.0317ZM10.5938 13.9692C10.5136 13.9119 10.423 13.871 10.327 13.8488C10.2311 13.8266 10.1317 13.8235 10.0345 13.8397C9.93736 13.8559 9.84434 13.891 9.76078 13.9432C9.67722 13.9953 9.60475 14.0634 9.5475 14.1435L7.86375 16.5004H3C2.80109 16.5004 2.61032 16.5794 2.46967 16.7201C2.32902 16.8607 2.25 17.0515 2.25 17.2504C2.25 17.4493 2.32902 17.6401 2.46967 17.7807C2.61032 17.9214 2.80109 18.0004 3 18.0004H7.86375C8.1022 18.0001 8.33714 17.943 8.54909 17.8338C8.76105 17.7245 8.9439 17.5663 9.0825 17.3723L10.7653 15.0173C10.823 14.9373 10.8643 14.8466 10.8869 14.7506C10.9095 14.6545 10.913 14.555 10.897 14.4576C10.8811 14.3603 10.8461 14.267 10.794 14.1832C10.742 14.0994 10.6739 14.0266 10.5938 13.9692Z" fill="#666666"></path></svg>