<svg width="20" height="20" viewBox="0 0 24 24" fill="none" xmlns="http://www.w3.org/2000/svg"><path d="M3.75 6L9.75 6C9.84852 5.99992 9.94609 6.01926 10.0371 6.0569C10.1282 6.09454 10.2109 6.14975 10.2806 6.21937L15.3103 11.25L19.9397 11.25L18.2194 9.53062C18.0786 9.38989 17.9996 9.19902 17.9996 9C17.9996 8.80098 18.0786 8.6101 18.2194 8.46937C18.3601 8.32864 18.551 8.24958 18.75 8.24958C18.949 8.24958 19.1399 8.32864 19.2806 8.46937L22.2806 11.4694C22.3504 11.539 22.4057 11.6217 22.4434 11.7128C22.4812 11.8038 22.5006 11.9014 22.5006 12C22.5006 12.0986 22.4812 12.1962 22.4434 12.2872C22.4057 12.3783 22.3504 12.461 22.2806 12.5306L19.2806 15.5306C19.1399 15.6714 18.949 15.7504 18.75 15.7504C18.551 15.7504 18.3601 15.6714 18.2194 15.5306C18.0786 15.3899 17.9996 15.199 17.9996 15C17.9996 14.801 18.0786 14.6101 18.2194 14.4694L19.9397 12.75L15.3103 12.75L10.2806 17.7806C10.2109 17.8503 10.1282 17.9055 10.0371 17.9431C9.94609 17.9807 9.84852 18.0001 9.75 18L3.75 18C3.55109 18 3.36032 17.921 3.21967 17.7803C3.07902 17.6397 3 17.4489 3 17.25C3 17.0511 3.07902 16.8603 3.21967 16.7197C3.36032 16.579 3.55109 16.5 3.75 16.5L9.43969 16.5L13.9397 12L9.43969 7.5L3.75 7.5C3.55109 7.5 3.36032 7.42098 3.21967 7.28033C3.07902 7.13968 3 6.94891 3 6.75C3 6.55109 3.07902 6.36032 3.21967 6.21967C3.36032 6.07902 3.55109 6 3.75 6Z" fill="#666666"></path></svg>