<svg width="24" height="24" viewBox="0 0 24 24" fill="none" xmlns="http://www.w3.org/2000/svg"><path d="M13.4999 9.75042V6.00042C13.4999 5.8015 13.5789 5.61074 13.7196 5.47009C13.8603 5.32943 14.051 5.25042 14.2499 5.25042C14.4488 5.25042 14.6396 5.32943 14.7803 5.47009C14.9209 5.61074 14.9999 5.8015 14.9999 6.00042V7.9401L18.9693 3.96979C19.11 3.82906 19.3009 3.75 19.4999 3.75C19.699 3.75 19.8898 3.82906 20.0306 3.96979C20.1713 4.11052 20.2503 4.30139 20.2503 4.50042C20.2503 4.69944 20.1713 4.89031 20.0306 5.03104L16.0602 9.00042H17.9999C18.1988 9.00042 18.3896 9.07943 18.5303 9.22009C18.6709 9.36074 18.7499 9.5515 18.7499 9.75042C18.7499 9.94933 18.6709 10.1401 18.5303 10.2807C18.3896 10.4214 18.1988 10.5004 17.9999 10.5004H14.2499C14.051 10.5004 13.8603 10.4214 13.7196 10.2807C13.5789 10.1401 13.4999 9.94933 13.4999 9.75042ZM9.74993 13.5004H5.99993C5.80102 13.5004 5.61025 13.5794 5.4696 13.7201C5.32895 13.8607 5.24993 14.0515 5.24993 14.2504C5.24993 14.4493 5.32895 14.6401 5.4696 14.7807C5.61025 14.9214 5.80102 15.0004 5.99993 15.0004H7.93962L3.9693 18.9698C3.82857 19.1105 3.74951 19.3014 3.74951 19.5004C3.74951 19.6994 3.82857 19.8903 3.9693 20.031C4.11003 20.1718 4.30091 20.2508 4.49993 20.2508C4.69895 20.2508 4.88982 20.1718 5.03055 20.031L8.99993 16.0607V18.0004C8.99993 18.1993 9.07895 18.3901 9.2196 18.5307C9.36025 18.6714 9.55102 18.7504 9.74993 18.7504C9.94884 18.7504 10.1396 18.6714 10.2803 18.5307C10.4209 18.3901 10.4999 18.1993 10.4999 18.0004V14.2504C10.4999 14.0515 10.4209 13.8607 10.2803 13.7201C10.1396 13.5794 9.94884 13.5004 9.74993 13.5004ZM16.0602 15.0004H17.9999C18.1988 15.0004 18.3896 14.9214 18.5303 14.7807C18.6709 14.6401 18.7499 14.4493 18.7499 14.2504C18.7499 14.0515 18.6709 13.8607 18.5303 13.7201C18.3896 13.5794 18.1988 13.5004 17.9999 13.5004H14.2499C14.051 13.5004 13.8603 13.5794 13.7196 13.7201C13.5789 13.8607 13.4999 14.0515 13.4999 14.2504V18.0004C13.4999 18.1993 13.5789 18.3901 13.7196 18.5307C13.8603 18.6714 14.051 18.7504 14.2499 18.7504C14.4488 18.7504 14.6396 18.6714 14.7803 18.5307C14.9209 18.3901 14.9999 18.1993 14.9999 18.0004V16.0607L18.9693 20.031C19.039 20.1007 19.1217 20.156 19.2128 20.1937C19.3038 20.2314 19.4014 20.2508 19.4999 20.2508C19.5985 20.2508 19.6961 20.2314 19.7871 20.1937C19.8781 20.156 19.9609 20.1007 20.0306 20.031C20.1002 19.9614 20.1555 19.8786 20.1932 19.7876C20.2309 19.6965 20.2503 19.599 20.2503 19.5004C20.2503 19.4019 20.2309 19.3043 20.1932 19.2132C20.1555 19.1222 20.1002 19.0395 20.0306 18.9698L16.0602 15.0004ZM9.74993 5.25042C9.55102 5.25042 9.36025 5.32943 9.2196 5.47009C9.07895 5.61074 8.99993 5.8015 8.99993 6.00042V7.9401L5.03055 3.96979C4.88982 3.82906 4.69895 3.75 4.49993 3.75C4.30091 3.75 4.11003 3.82906 3.9693 3.96979C3.82857 4.11052 3.74951 4.30139 3.74951 4.50042C3.74951 4.69944 3.82857 4.89031 3.9693 5.03104L7.93962 9.00042H5.99993C5.80102 9.00042 5.61025 9.07943 5.4696 9.22009C5.32895 9.36074 5.24993 9.5515 5.24993 9.75042C5.24993 9.94933 5.32895 10.1401 5.4696 10.2807C5.61025 10.4214 5.80102 10.5004 5.99993 10.5004H9.74993C9.94884 10.5004 10.1396 10.4214 10.2803 10.2807C10.4209 10.1401 10.4999 9.94933 10.4999 9.75042V6.00042C10.4999 5.8015 10.4209 5.61074 10.2803 5.47009C10.1396 5.32943 9.94884 5.25042 9.74993 5.25042Z" fill="#666666"></path></svg>