<svg width="22" height="25" viewBox="0 0 22 25" fill="none" xmlns="http://www.w3.org/2000/svg">
<path d="M19.8946 16.3597V7.92463C19.8946 7.35137 19.5939 6.83271 19.1018 6.55973L11.8022 2.35586C11.3101 2.08288 10.7086 2.08288 10.2165 2.35586L2.91687 6.55973C2.42476 6.83271 2.12402 7.35137 2.12402 7.92463V16.3597C2.12402 16.9329 2.42476 17.4516 2.91687 17.7246L10.2165 21.9285C10.7086 22.2014 11.3101 22.2014 11.8022 21.9285L19.1018 17.7246C19.5939 17.4516 19.8946 16.9329 19.8946 16.3597Z" fill="white"/>
<path d="M13.8921 4.5095C13.9848 4.18498 14.1471 3.86046 14.3325 3.5823C15.1438 2.28422 16.6273 1.51929 18.3658 1.51929H18.7135C18.8758 1.51929 19.0149 1.63519 19.0844 1.77427C20.0116 3.42004 20.0348 5.22808 19.1539 6.61887C18.9685 6.92021 18.7367 7.19837 18.4817 7.43017" fill="white"/>
<mask id="mask0_1260_1300" style="mask-type:alpha" maskUnits="userSpaceOnUse" x="0" y="0" width="22" height="25">
<path fill-rule="evenodd" clip-rule="evenodd" d="M19.7688 4.86469L20.5352 5.30718C21.2526 5.72377 21.6924 6.48751 21.6924 7.32069V16.9947C21.6924 17.8279 21.2526 18.5917 20.5352 19.0082L12.1572 23.8453C11.4397 24.2619 10.5603 24.2619 9.84281 23.8453L1.4648 19.0082C0.747347 18.5917 0.307617 17.8279 0.307617 16.9947V7.32069C0.307617 6.48751 0.747347 5.72377 1.4648 5.30718L9.84281 0.470155C10.5603 0.0535683 11.4397 0.0535683 12.1572 0.470155L15.4715 2.38368C15.0156 2.7044 14.6291 3.10772 14.3325 3.5823C14.3009 3.62973 14.2699 3.67851 14.2399 3.72842L12.1572 2.52994C11.4397 2.11336 10.5603 2.11336 9.84281 2.52994L3.24686 6.32551C2.52941 6.74209 2.08968 7.50584 2.08968 8.33901V15.9533C2.08968 16.7865 2.52941 17.5502 3.24686 17.9668L9.84281 21.7623C10.5603 22.1789 11.4397 22.1789 12.1572 21.7623L18.7531 17.9668C19.4706 17.5502 19.9103 16.7865 19.9103 15.9533V8.33901C19.9103 7.67467 19.6307 7.05447 19.1537 6.61921C19.1538 6.6191 19.1539 6.61899 19.1539 6.61887C19.4922 6.08474 19.6972 5.48908 19.7688 4.86469Z" fill="black"/>
</mask>
<g mask="url(#mask0_1260_1300)">
<rect x="-6.78906" y="-2.02539" width="32.2786" height="29.7956" fill="white"/>
<path d="M-8.57336 22.1262C-1.57886 29.2007 11.0065 30.7858 19.5368 25.6666L19.9583 25.4137C28.4885 20.2944 29.7335 10.4095 22.739 3.33492C15.7445 -3.73961 3.15921 -5.32471 -5.37107 -0.205486L-5.79258 0.0474705C-14.3229 5.16669 -15.5679 15.0517 -8.57336 22.1262Z" fill="url(#paint0_linear_1260_1300)"/>
<g style="mix-blend-mode:soft-light">
<path d="M-4.8824 1.39489C-12.7441 4.93115 -14.9565 13.4124 -9.82402 20.3384C-4.69155 27.2643 5.84227 30.0121 13.7039 26.4759L19.0418 24.0749C26.9034 20.5386 29.1159 12.0573 23.9834 5.1314C18.8509 -1.79453 8.31711 -4.5424 0.455461 -1.00614L-4.8824 1.39489Z" fill="url(#paint1_radial_1260_1300)"/>
</g>
<g style="mix-blend-mode:soft-light">
<path d="M9.02894 27.643C1.5501 29.2043 -6.52699 24.6132 -9.01174 17.3884C-11.4965 10.1637 -7.44798 3.04126 0.0308641 1.48L8.21353 -0.228201C15.6924 -1.78947 23.7695 2.80167 26.2542 10.0264C28.739 17.2511 24.6905 24.3736 17.2116 25.9348L9.02894 27.643Z" fill="url(#paint2_radial_1260_1300)"/>
</g>
</g>
<path d="M18.5219 15.7218V8.57043C18.5219 8.08441 18.2673 7.64468 17.8507 7.41324L11.6714 3.84911C11.2548 3.61768 10.7456 3.61768 10.329 3.84911L4.14968 7.41324C3.7331 7.64468 3.47852 8.08441 3.47852 8.57043V15.7218C3.47852 16.2078 3.7331 16.6476 4.14968 16.879L10.329 20.4431C10.7456 20.6746 11.2548 20.6746 11.6714 20.4431L17.8507 16.879C18.2673 16.6476 18.5219 16.2078 18.5219 15.7218Z" fill="#002F5A"/>
<path d="M18.4284 8.47778C18.4284 8.47778 18.4284 8.57036 18.4284 8.61665C18.4516 8.61665 18.4747 8.61665 18.4978 8.61665C18.4978 8.61665 18.4516 8.54721 18.4053 8.50093L18.4284 8.47778Z" fill="#002F5A"/>
<path d="M6.94987 9.65862L7.29702 9.05689L7.89876 8.70973L7.27388 8.36258L6.94987 7.80713L6.62586 8.36258L6.00098 8.70973L6.60271 9.05689L6.94987 9.65862Z" fill="#8EC7FF"/>
<path d="M6.88083 9.51972L7.13541 9.05685L7.57514 8.80227L7.11227 8.54769L6.88083 8.1311L6.6494 8.54769L6.18652 8.80227L6.62625 9.05685L6.88083 9.51972Z" fill="#E2F1FF"/>
<path d="M18.5219 14.1021C17.9202 13.1995 16.9019 12.5978 15.7447 12.5978C14.5875 12.5978 13.4766 13.2689 12.898 14.241C12.5046 14.079 12.088 13.9864 11.6251 13.9864C11.0696 13.9864 10.5373 14.1253 10.0513 14.3798C10.0513 14.3104 10.0513 14.2641 10.0513 14.1947C10.0513 12.0886 8.33869 10.376 6.23261 10.376C5.14486 10.376 4.17283 10.8389 3.47852 11.5563V15.7685C3.47852 16.2545 3.7331 16.6942 4.14968 16.9256L10.329 20.4898C10.5373 20.6055 10.7688 20.6749 11.0002 20.6749C11.2316 20.6749 11.4631 20.6055 11.6714 20.4898L17.8507 16.9256C18.059 16.8099 18.221 16.6479 18.3368 16.4396C18.4525 16.2313 18.5219 15.9999 18.5219 15.7685V14.1484V14.1021Z" fill="#F4F9FF"/>
<path d="M17.8507 16.8792C18.2673 16.6478 18.5219 16.2081 18.5219 15.722V14.7269C17.9202 13.8243 16.9019 13.2225 15.7447 13.2225C14.5875 13.2225 13.4766 13.8937 12.898 14.8657C12.5046 14.7037 12.088 14.6111 11.6251 14.6111C11.0696 14.6111 10.5373 14.75 10.0513 15.0046C10.0513 14.9352 10.0513 14.8889 10.0513 14.8194C10.0513 12.7134 8.33869 11.0007 6.23261 11.0007C5.14486 11.0007 4.17283 11.4636 3.47852 12.1811V15.7683C3.47852 16.2543 3.7331 16.6941 4.14968 16.9255L10.329 20.4896C10.7456 20.7211 11.2548 20.7211 11.6714 20.4896L17.8507 16.9255V16.8792Z" fill="#B0D8FF"/>
<path d="M11.0921 20.68C11.3004 20.68 11.4855 20.6337 11.6707 20.518L14.5868 18.8285L15.4431 18.3425L17.8732 16.9307C18.2666 16.6993 18.4981 16.3059 18.5212 15.8661C18.3361 15.7967 18.1509 15.7504 17.9426 15.7504C17.364 15.7504 16.878 16.0513 16.554 16.491C16.3457 16.167 15.9986 15.9587 15.582 15.9587C15.1654 15.9587 14.8645 16.167 14.6331 16.4679C14.4248 16.167 14.0776 15.9587 13.6842 15.9587C13.0362 15.9587 12.4807 16.491 12.4807 17.1622C12.4807 17.2779 12.5039 17.3705 12.5502 17.4631C11.6938 17.5093 10.9995 18.0879 10.7681 18.8748C10.6292 18.2499 10.5367 17.6019 10.5598 16.9307C10.6061 15.5653 12.1104 12.3252 12.7584 11.2143C12.7584 11.2143 12.7122 11.168 12.689 11.168C11.6244 13.0426 8.56944 16.6299 6.57909 17.0465C6.67166 16.815 6.71795 16.5836 6.71795 16.3522C6.71795 15.2413 5.81534 14.3155 4.6813 14.3155C4.54244 14.3155 4.42672 14.3618 4.31101 14.3849C4.35729 14.2692 4.38044 14.1766 4.38044 14.0378C4.38044 13.5286 3.98699 13.112 3.50098 13.0426V15.7967C3.50098 16.2827 3.75556 16.7225 4.17214 16.9539L5.86163 17.9259L10.3515 20.518C10.5135 20.6106 10.6987 20.6337 10.8838 20.6569C10.9532 20.6569 11.0227 20.6569 11.0921 20.6569V20.68Z" fill="#E2F1FF"/>
<path d="M5.72278 7.59379L5.80062 7.45976L5.9309 7.38506L5.79454 7.30706L5.72278 7.18237L5.65046 7.30651L5.51465 7.38506L5.64494 7.45976L5.72278 7.59379Z" fill="#8EC7FF"/>
<path d="M8.01526 7.89384L8.0931 7.75981L8.22338 7.68511L8.08703 7.60711L8.01526 7.48242L7.94294 7.60656L7.80713 7.68511L7.93742 7.75981L8.01526 7.89384Z" fill="#8EC7FF"/>
<path d="M7.78332 9.86137L7.86116 9.72734L7.99145 9.65264L7.85509 9.57464L7.78332 9.44995L7.711 9.57409L7.5752 9.65264L7.70548 9.72734L7.78332 9.86137Z" fill="#8EC7FF"/>
<path d="M10.0275 10.8179L10.1053 10.6839L10.2356 10.6092L10.0992 10.5312L10.0275 10.4065L9.95514 10.5306L9.81934 10.6092L9.94962 10.6839L10.0275 10.8179Z" fill="#8EC7FF"/>
<path d="M9.58801 8.44975L9.66585 8.31572L9.79614 8.24102L9.65978 8.16302L9.58801 8.03833L9.51569 8.16247L9.37988 8.24102L9.51017 8.31572L9.58801 8.44975Z" fill="#8EC7FF"/>
<path d="M8.45422 6.20438L8.53206 6.07036L8.66235 5.99566L8.52599 5.91766L8.45422 5.79297L8.3819 5.91711L8.24609 5.99566L8.37638 6.07036L8.45422 6.20438Z" fill="#8EC7FF"/>
<path d="M14.2246 5.64559C13.1351 5.57605 12.092 5.92375 11.5589 6.80459C11.3271 7.15228 11.2343 7.54634 11.188 7.96358C12.1847 7.40726 13.5755 7.45362 14.8041 8.19538C14.3636 7.38409 14.1782 6.50325 14.2246 5.66877V5.64559Z" fill="#1A4AA2"/>
<path d="M13.9466 5.97029C13.0658 5.87757 12.2545 6.10937 11.8604 6.75841C11.6982 7.01338 11.6286 7.31473 11.6055 7.61606C12.3704 7.22201 13.5062 7.31472 14.503 7.9174C14.1321 7.29154 13.9466 6.61933 13.9466 5.97029Z" fill="#4D7DD5"/>
<path d="M17.3303 7.59302C16.5886 8.01026 15.7309 8.21888 14.8037 8.17252C16.0091 8.93745 16.6581 10.1892 16.5886 11.325C16.9363 11.1164 17.2376 10.8382 17.4694 10.4905C18.0025 9.63285 17.8866 8.54339 17.3303 7.59302Z" fill="#1A4AA2"/>
<path d="M17.168 7.98682C17.6548 8.72857 17.7939 9.56305 17.3998 10.2121C17.2376 10.4671 17.0058 10.6757 16.7276 10.8148C16.7276 9.95711 16.1481 8.98355 15.1514 8.35769C15.8931 8.40405 16.5653 8.26498 17.1448 7.98682H17.168Z" fill="#4D7DD5"/>
<path d="M17.1915 7.91748C17.6087 8.63605 17.7665 9.52859 17.6042 10.2472C17.9596 9.45736 17.854 8.41262 17.3673 7.60132C16.6255 8.01856 15.708 8.21882 14.7808 8.17246C14.9198 8.26518 15.0126 8.3579 15.1285 8.4738C15.8702 8.42744 16.5656 8.26518 17.1683 7.94066L17.1915 7.91748Z" fill="#002F5A"/>
<path d="M11.3967 7.12935C11.9298 6.27169 12.9729 5.90081 14.0624 5.97035C14.016 6.64257 14.1783 7.33797 14.4564 8.01019C14.5723 8.05655 14.6882 8.10291 14.7809 8.17245C14.3405 7.36115 14.1551 6.48031 14.2014 5.64583C13.112 5.57629 12.0689 5.92399 11.5357 6.80483C11.4198 6.99027 11.3503 7.17571 11.2808 7.36115C11.3271 7.29161 11.3503 7.19889 11.3967 7.12935Z" fill="#002F5A"/>
<path d="M14.7116 3.81481C13.9003 5.11288 13.993 6.73548 14.8043 8.17264C16.4501 8.26536 17.9567 7.6395 18.768 6.34142C19.5793 5.04335 19.4866 3.42075 18.6753 1.98359C17.0295 1.89088 15.5229 2.51673 14.7116 3.81481Z" fill="#1A4AA2"/>
<path d="M15.7088 3.84969C16.3347 2.82977 17.3075 2.26152 18.5128 1.98336C16.9598 1.937 15.5226 2.56285 14.7345 3.81457C13.9232 5.11265 14.0159 6.73524 14.8272 8.1724C15.0358 8.1724 15.2445 8.1724 15.4531 8.14922C14.8736 6.71206 14.8736 5.18219 15.6617 3.93047L15.7088 3.84969Z" fill="#4D7DD5"/>
<path d="M14.3408 9.05343C14.3408 8.89117 14.3871 8.72891 14.4335 8.56665C14.2017 8.89117 13.854 9.12297 13.4136 9.12297C13.344 9.12297 13.2745 9.09979 13.2049 9.07661C12.9036 9.56339 12.8804 10.1661 13.0659 10.7456C13.6685 10.6528 14.2017 10.3747 14.5262 9.86472C14.5494 9.81836 14.5639 9.81291 14.5726 9.74882C14.4335 9.54021 14.3408 9.33159 14.3408 9.05343Z" fill="#FF9933"/>
<path d="M14.2249 9.14611C14.2249 9.14611 14.2249 8.98385 14.2713 8.91431C14.1554 9.07657 13.97 9.19247 13.7613 9.19247C13.715 9.19247 13.6918 9.19247 13.6686 9.19247C13.5295 9.44744 13.5064 9.74879 13.5991 10.0269C13.9004 9.98058 14.1786 9.8415 14.3408 9.58652C14.3408 9.58652 14.3408 9.54017 14.3408 9.51699C14.2713 9.42427 14.2249 9.30836 14.2249 9.16929V9.14611Z" fill="#FFD166"/>
<path d="M19.2313 3.60596C19.1386 4.34771 18.9531 5.06629 18.5591 5.71533C17.7246 7.03659 16.357 7.84788 14.7808 8.10286C14.7808 8.12604 14.7808 8.14922 14.8039 8.1724C16.4497 8.26512 17.9564 7.63927 18.7677 6.34119C19.2777 5.52989 19.3936 4.55633 19.2313 3.60596Z" fill="#002F5A"/>
<path d="M17.3768 4.48658C17.7225 4.48658 18.0027 4.20637 18.0027 3.86072C18.0027 3.51507 17.7225 3.23486 17.3768 3.23486C17.0312 3.23486 16.751 3.51507 16.751 3.86072C16.751 4.20637 17.0312 4.48658 17.3768 4.48658Z" fill="white"/>
<path d="M14.4336 7.94446L14.2456 8.23633L14.8683 8.6373L15.0562 8.34543L14.4336 7.94446Z" fill="#95A0A3"/>
<path d="M14.3769 7.75891L14.189 8.05078L15.1035 8.63971L15.2915 8.34783L14.3769 7.75891Z" fill="#202526"/>
<defs>
<linearGradient id="paint0_linear_1260_1300" x1="-8.57334" y1="22.1262" x2="16.656" y2="-2.81771" gradientUnits="userSpaceOnUse">
<stop stop-color="#00DEE7"/>
<stop offset="0.25" stop-color="#2CB47B"/>
<stop offset="0.5" stop-color="#5F36DD"/>
<stop offset="0.75" stop-color="#F03F45"/>
<stop offset="1" stop-color="#FF9933"/>
</linearGradient>
<radialGradient id="paint1_radial_1260_1300" cx="0" cy="0" r="1" gradientUnits="userSpaceOnUse" gradientTransform="translate(10.0826 21.1821) rotate(-110.881) scale(24.3275 4438.41)">
<stop offset="0.0895631" stop-color="#24B7E0"/>
<stop offset="0.294355" stop-color="#26A570"/>
<stop offset="0.500621" stop-color="#67458B"/>
<stop offset="0.706887" stop-color="#EA525B"/>
<stop offset="0.910206" stop-color="#F18840"/>
</radialGradient>
<radialGradient id="paint2_radial_1260_1300" cx="0" cy="0" r="1" gradientUnits="userSpaceOnUse" gradientTransform="translate(3.43686 6.57385) rotate(55.1858) scale(23.7505 3976.61)">
<stop offset="0.0895631" stop-color="#24B7E0"/>
<stop offset="0.294355" stop-color="#26A570"/>
<stop offset="0.500621" stop-color="#67458B"/>
<stop offset="0.706887" stop-color="#EA525B"/>
<stop offset="0.910206" stop-color="#F18840"/>
</radialGradient>
</defs>
</svg>
