<svg width="82" height="83" viewBox="0 0 82 83" fill="none" xmlns="http://www.w3.org/2000/svg">
<g filter="url(#filter0_d_1037_7645)">
<rect x="5" y="3.15771" width="72" height="72" rx="36" fill="white"/>
<path d="M32.4724 30.4217C32.0974 29.4647 32.1124 28.3712 32.2789 27.3707C33.4248 27.715 34.5012 28.2583 35.4589 28.9757C35.8789 29.2967 36.4294 29.4002 36.9424 29.2457C38.2585 28.8509 39.6258 28.6528 40.9999 28.6577C42.4414 28.6577 43.8109 28.8677 45.0544 29.2442C45.5674 29.4002 46.1179 29.2952 46.5364 28.9742C47.4936 28.2569 48.5694 27.7137 49.7149 27.3692C49.8814 28.3697 49.8949 29.4632 49.5229 30.4187C49.2979 30.9947 49.4104 31.6577 49.8349 32.1287C50.9209 33.3332 51.4999 34.7177 51.4999 36.1577C51.4999 39.3287 48.5449 42.4382 43.7989 43.3847C42.6109 43.6217 42.1474 45.1172 43.0564 45.9737C43.6399 46.5227 43.9999 47.2967 43.9999 48.1577V52.6577C43.9999 53.0555 44.1579 53.437 44.4392 53.7183C44.7205 53.9996 45.102 54.1577 45.4999 54.1577C45.8977 54.1577 46.2792 53.9996 46.5605 53.7183C46.8418 53.437 46.9999 53.0555 46.9999 52.6577V48.1577C46.9999 47.3027 46.8199 46.4897 46.4989 45.7532C51.0244 44.1827 54.4999 40.6472 54.4999 36.1577C54.4999 34.1372 53.7739 32.2802 52.5694 30.7247C52.8844 29.4947 52.8559 28.2557 52.7359 27.3047C52.6294 26.4527 52.4809 25.3367 51.8809 24.6707C50.9884 23.6822 49.5109 24.2642 48.4609 24.6227C47.334 25.0025 46.2622 25.5296 45.2734 26.1902C43.877 25.8333 42.4411 25.6544 40.9999 25.6577C39.5089 25.6577 38.0704 25.8452 36.7234 26.1917C35.7345 25.5311 34.6628 25.004 33.5359 24.6242C32.4859 24.2642 31.0069 23.6822 30.1144 24.6707C29.5024 25.3487 29.3749 26.3762 29.2654 27.2492L29.2579 27.3062C29.1379 28.2587 29.1109 29.4992 29.4259 30.7307C28.2259 32.2847 27.4999 34.1387 27.4999 36.1577C27.4999 40.6457 30.9754 44.1827 35.5009 45.7532C35.1739 46.5023 35.0034 47.3103 34.9999 48.1277L34.7479 48.1787C33.6724 48.3272 32.9839 48.1937 32.5159 47.9957C31.3759 47.5127 30.7879 46.2962 30.0709 45.3662C29.6239 44.7887 28.9729 44.0672 27.9739 43.7342C27.7869 43.6719 27.5896 43.6471 27.393 43.6611C27.1965 43.6752 27.0047 43.7278 26.8285 43.8159C26.4726 43.994 26.2021 44.3061 26.0764 44.6837C25.9506 45.0612 25.9801 45.4732 26.1581 45.8291C26.3362 46.1849 26.6483 46.4555 27.0259 46.5812C27.8629 46.8602 28.4419 48.2942 28.9729 48.9302C29.5324 49.6022 30.2764 50.3042 31.3429 50.7572C32.3659 51.1922 33.5674 51.3467 34.9999 51.1712V52.6577C34.9999 53.0555 35.1579 53.437 35.4392 53.7183C35.7205 53.9996 36.102 54.1577 36.4999 54.1577C36.8977 54.1577 37.2792 53.9996 37.5605 53.7183C37.8418 53.437 37.9999 53.0555 37.9999 52.6577V48.1577C37.9999 47.2967 38.3599 46.5227 38.9434 45.9737C39.8539 45.1157 39.3889 43.6217 38.2009 43.3847C33.4534 42.4382 30.4999 39.3287 30.4999 36.1577C30.4999 34.7207 31.0774 33.3362 32.1619 32.1317C32.5864 31.6607 32.6974 30.9977 32.4724 30.4217Z" fill="#464646"/>
</g>
<defs>
<filter id="filter0_d_1037_7645" x="0" y="0.157715" width="82" height="82" filterUnits="userSpaceOnUse" color-interpolation-filters="sRGB">
<feFlood flood-opacity="0" result="BackgroundImageFix"/>
<feColorMatrix in="SourceAlpha" type="matrix" values="0 0 0 0 0 0 0 0 0 0 0 0 0 0 0 0 0 0 127 0" result="hardAlpha"/>
<feOffset dy="2"/>
<feGaussianBlur stdDeviation="2.5"/>
<feComposite in2="hardAlpha" operator="out"/>
<feColorMatrix type="matrix" values="0 0 0 0 0 0 0 0 0 0 0 0 0 0 0 0 0 0 0.1 0"/>
<feBlend mode="normal" in2="BackgroundImageFix" result="effect1_dropShadow_1037_7645"/>
<feBlend mode="normal" in="SourceGraphic" in2="effect1_dropShadow_1037_7645" result="shape"/>
</filter>
</defs>
</svg>
