<svg width="25" height="25" viewBox="0 0 25 25" fill="none" xmlns="http://www.w3.org/2000/svg">
<path fill-rule="evenodd" clip-rule="evenodd" d="M12.5001 0.157715C5.70578 0.157715 0.196289 5.66598 0.196289 12.4615C0.196289 17.8979 3.7217 22.5097 8.61038 24.1368C9.22508 24.2509 9.45084 23.8699 9.45084 23.5449C9.45084 23.2515 9.43942 22.2823 9.43413 21.2542C6.0112 21.9985 5.28892 19.8025 5.28892 19.8025C4.72923 18.3803 3.9228 18.0022 3.9228 18.0022C2.80627 17.2385 4.00695 17.2544 4.00695 17.2544C5.24226 17.341 5.89302 18.5224 5.89302 18.5224C6.9904 20.4029 8.77134 19.8593 9.47345 19.5452C9.58388 18.7499 9.90274 18.207 10.2546 17.8997C7.52177 17.589 4.64875 16.5338 4.64875 11.8193C4.64875 10.476 5.12959 9.37844 5.91666 8.51659C5.78871 8.2069 5.36756 6.95549 6.03565 5.26073C6.03565 5.26073 7.06864 4.93005 9.41987 6.52192C10.4015 6.24911 11.4543 6.11198 12.5001 6.1073C13.5453 6.11198 14.5987 6.2487 15.5822 6.52151C17.9305 4.92965 18.9623 5.26033 18.9623 5.26033C19.632 6.95488 19.2109 8.20649 19.0831 8.51619C19.872 9.37803 20.3494 10.4756 20.3494 11.8189C20.3494 16.5446 17.4711 17.5849 14.7313 17.8897C15.1728 18.2715 15.5661 19.0205 15.5661 20.1682C15.5661 21.8145 15.5518 23.1394 15.5518 23.5447C15.5518 23.8721 15.7735 24.2558 16.3969 24.1349C21.2828 22.5062 24.8041 17.8958 24.8041 12.4615C24.8039 5.66639 19.295 0.157715 12.5001 0.157715Z" fill="#181616"/>
<path d="M4.8561 17.8228C4.829 17.8839 4.73283 17.9022 4.64522 17.8605C4.55557 17.8205 4.50566 17.7372 4.53459 17.6759C4.56108 17.6127 4.65745 17.5954 4.74648 17.6376C4.83613 17.6777 4.88707 17.7619 4.8559 17.823L4.8561 17.8228ZM5.35446 18.3788C5.29599 18.4332 5.18128 18.4079 5.10345 18.3218C5.02276 18.2362 5.00769 18.1215 5.06738 18.0663C5.1281 18.0121 5.23935 18.0377 5.32003 18.1233C5.4003 18.2101 5.4162 18.3238 5.35467 18.379L5.35446 18.3788ZM5.83978 19.0872C5.7644 19.1398 5.64093 19.0907 5.56473 18.9813C5.48934 18.8717 5.48934 18.7402 5.56677 18.6879C5.64276 18.6353 5.7644 18.6828 5.84182 18.7912C5.9168 18.9022 5.9168 19.0338 5.83978 19.0872ZM6.5042 19.772C6.43696 19.8464 6.29312 19.8264 6.18799 19.7252C6.08061 19.6259 6.05066 19.4847 6.1181 19.4106C6.18656 19.336 6.33102 19.3568 6.43676 19.4574C6.54413 19.5565 6.57653 19.6979 6.50461 19.7718L6.5042 19.772ZM7.42106 20.1695C7.39111 20.2659 7.25297 20.3097 7.1134 20.2685C6.97424 20.2264 6.88317 20.1137 6.91169 20.0163C6.94022 19.9191 7.07937 19.8737 7.21976 19.9175C7.35891 19.9595 7.44999 20.0715 7.42106 20.1695ZM8.42817 20.2431C8.43164 20.3445 8.31346 20.4285 8.16738 20.4305C8.02007 20.434 7.90088 20.3517 7.89945 20.2518C7.89945 20.1494 8.01518 20.0664 8.16228 20.0636C8.30837 20.0609 8.42838 20.1424 8.42838 20.2429L8.42817 20.2431ZM9.365 20.0837C9.38252 20.1826 9.28085 20.2842 9.13558 20.3113C8.99296 20.3378 8.86052 20.2763 8.84218 20.1783C8.82466 20.0768 8.92816 19.9751 9.07079 19.9489C9.21626 19.9238 9.34666 19.9833 9.365 20.0837Z" fill="#181616"/>
</svg>
