<svg width="82" height="83" viewBox="0 0 82 83" fill="none" xmlns="http://www.w3.org/2000/svg">
<g filter="url(#filter0_d_1037_7647)">
<rect x="5" y="3.15771" width="72" height="72" rx="36" fill="white"/>
<path d="M41.0015 34.6577C39.808 34.6577 38.6634 35.1318 37.8195 35.9757C36.9756 36.8196 36.5015 37.9642 36.5015 39.1577C36.5015 40.3512 36.9756 41.4958 37.8195 42.3397C38.6634 43.1836 39.808 43.6577 41.0015 43.6577C42.195 43.6577 43.3396 43.1836 44.1835 42.3397C45.0274 41.4958 45.5015 40.3512 45.5015 39.1577C45.5015 37.9642 45.0274 36.8196 44.1835 35.9757C43.3396 35.1318 42.195 34.6577 41.0015 34.6577ZM41.0015 31.6577C42.9906 31.6577 44.8983 32.4479 46.3048 33.8544C47.7113 35.2609 48.5015 37.1686 48.5015 39.1577C48.5015 41.1468 47.7113 43.0545 46.3048 44.461C44.8983 45.8675 42.9906 46.6577 41.0015 46.6577C39.0124 46.6577 37.1047 45.8675 35.6982 44.461C34.2917 43.0545 33.5015 41.1468 33.5015 39.1577C33.5015 37.1686 34.2917 35.2609 35.6982 33.8544C37.1047 32.4479 39.0124 31.6577 41.0015 31.6577ZM50.7515 31.2827C50.7515 31.78 50.554 32.2569 50.2023 32.6085C49.8507 32.9602 49.3738 33.1577 48.8765 33.1577C48.3792 33.1577 47.9023 32.9602 47.5507 32.6085C47.199 32.2569 47.0015 31.78 47.0015 31.2827C47.0015 30.7854 47.199 30.3085 47.5507 29.9569C47.9023 29.6053 48.3792 29.4077 48.8765 29.4077C49.3738 29.4077 49.8507 29.6053 50.2023 29.9569C50.554 30.3085 50.7515 30.7854 50.7515 31.2827ZM41.0015 27.1577C37.2905 27.1577 36.6845 27.1682 34.958 27.2447C33.782 27.3002 32.993 27.4577 32.261 27.7427C31.6487 27.9683 31.0951 28.3287 30.641 28.7972C30.1719 29.2511 29.811 29.8048 29.585 30.4172C29.3 31.1522 29.1425 31.9397 29.0885 33.1142C29.0105 34.7702 29 35.3492 29 39.1577C29 42.8702 29.0105 43.4747 29.087 45.2012C29.1425 46.3757 29.3 47.1662 29.5835 47.8967C29.8385 48.5492 30.1385 49.0187 30.6365 49.5167C31.142 50.0207 31.6115 50.3222 32.2565 50.5712C32.9975 50.8577 33.7865 51.0167 34.9565 51.0707C36.6125 51.1487 37.1915 51.1577 41 51.1577C44.7125 51.1577 45.317 51.1472 47.0435 51.0707C48.2165 51.0152 49.0055 50.8577 49.739 50.5742C50.3513 50.3487 50.9049 49.9883 51.359 49.5197C51.8645 49.0157 52.166 48.5462 52.415 47.8997C52.7 47.1617 52.859 46.3727 52.913 45.1997C52.991 43.5452 53 42.9647 53 39.1577C53 35.4467 52.9895 34.8407 52.913 33.1142C52.8575 31.9412 52.6985 31.1492 52.415 30.4172C52.1894 29.805 51.829 29.2513 51.3605 28.7972C50.9066 28.3281 50.3529 27.9672 49.7405 27.7412C49.0055 27.4562 48.2165 27.2987 47.0435 27.2447C45.389 27.1667 44.81 27.1577 41 27.1577M41 24.1577C45.0755 24.1577 45.584 24.1727 47.1845 24.2477C48.7805 24.3227 49.8695 24.5732 50.825 24.9452C51.815 25.3262 52.649 25.8422 53.483 26.6747C54.246 27.4243 54.8363 28.3314 55.2125 29.3327C55.583 30.2882 55.835 31.3772 55.91 32.9747C55.9805 34.5737 56 35.0822 56 39.1577C56 43.2332 55.985 43.7417 55.91 45.3407C55.835 46.9397 55.583 48.0257 55.2125 48.9827C54.8363 49.984 54.246 50.8911 53.483 51.6407C52.7334 52.4038 51.8263 52.994 50.825 53.3702C49.8695 53.7407 48.7805 53.9927 47.1845 54.0677C45.584 54.1382 45.0755 54.1577 41 54.1577C36.9245 54.1577 36.416 54.1427 34.8155 54.0677C33.2195 53.9927 32.132 53.7407 31.175 53.3702C30.1737 52.994 29.2666 52.4038 28.517 51.6407C27.754 50.8911 27.1637 49.984 26.7875 48.9827C26.4155 48.0272 26.165 46.9382 26.09 45.3407C26.018 43.7417 26 43.2332 26 39.1577C26 35.0822 26.015 34.5737 26.09 32.9747C26.165 31.3757 26.4155 30.2897 26.7875 29.3327C27.1637 28.3314 27.754 27.4243 28.517 26.6747C29.2666 25.9117 30.1737 25.3214 31.175 24.9452C32.1305 24.5732 33.218 24.3227 34.8155 24.2477C36.4175 24.1772 36.926 24.1577 41.0015 24.1577" fill="#464646"/>
</g>
<defs>
<filter id="filter0_d_1037_7647" x="0" y="0.157715" width="82" height="82" filterUnits="userSpaceOnUse" color-interpolation-filters="sRGB">
<feFlood flood-opacity="0" result="BackgroundImageFix"/>
<feColorMatrix in="SourceAlpha" type="matrix" values="0 0 0 0 0 0 0 0 0 0 0 0 0 0 0 0 0 0 127 0" result="hardAlpha"/>
<feOffset dy="2"/>
<feGaussianBlur stdDeviation="2.5"/>
<feComposite in2="hardAlpha" operator="out"/>
<feColorMatrix type="matrix" values="0 0 0 0 0 0 0 0 0 0 0 0 0 0 0 0 0 0 0.1 0"/>
<feBlend mode="normal" in2="BackgroundImageFix" result="effect1_dropShadow_1037_7647"/>
<feBlend mode="normal" in="SourceGraphic" in2="effect1_dropShadow_1037_7647" result="shape"/>
</filter>
</defs>
</svg>
