<svg width="82" height="83" viewBox="0 0 82 83" fill="none" xmlns="http://www.w3.org/2000/svg">
<g filter="url(#filter0_d_1037_7646)">
<rect x="5" y="3.15771" width="72" height="72" rx="36" fill="white"/>
<path d="M48.5 40.8527V46.3982H45.2855V41.2232C45.2855 39.9242 44.8205 39.0377 43.6565 39.0377C42.7685 39.0377 42.239 39.6347 42.0065 40.2137C41.9225 40.4207 41.9 40.7087 41.9 40.9967V46.3982H38.684C38.684 46.3982 38.7275 37.6352 38.684 36.7277H41.9V38.0972L41.879 38.1287H41.9V38.0972C42.3275 37.4372 43.0895 36.4997 44.798 36.4997C46.913 36.4997 48.5 37.8827 48.5 40.8527ZM35.3195 32.0642C34.22 32.0642 33.5 32.7872 33.5 33.7352C33.5 34.6652 34.199 35.4077 35.2775 35.4077H35.2985C36.4205 35.4077 37.118 34.6637 37.118 33.7352C37.097 32.7872 36.4205 32.0642 35.3195 32.0642ZM33.6905 46.3982H36.9065V36.7277H33.6905V46.3982Z" fill="#464646"/>
<path d="M32 27.1577C31.2044 27.1577 30.4413 27.4738 29.8787 28.0364C29.3161 28.599 29 29.3621 29 30.1577V48.1577C29 48.9534 29.3161 49.7164 29.8787 50.279C30.4413 50.8416 31.2044 51.1577 32 51.1577H50C50.7956 51.1577 51.5587 50.8416 52.1213 50.279C52.6839 49.7164 53 48.9534 53 48.1577V30.1577C53 29.3621 52.6839 28.599 52.1213 28.0364C51.5587 27.4738 50.7956 27.1577 50 27.1577H32ZM32 24.1577H50C51.5913 24.1577 53.1174 24.7899 54.2426 25.9151C55.3679 27.0403 56 28.5664 56 30.1577V48.1577C56 49.749 55.3679 51.2751 54.2426 52.4004C53.1174 53.5256 51.5913 54.1577 50 54.1577H32C30.4087 54.1577 28.8826 53.5256 27.7574 52.4004C26.6321 51.2751 26 49.749 26 48.1577V30.1577C26 28.5664 26.6321 27.0403 27.7574 25.9151C28.8826 24.7899 30.4087 24.1577 32 24.1577Z" fill="#464646"/>
</g>
<defs>
<filter id="filter0_d_1037_7646" x="0" y="0.157715" width="82" height="82" filterUnits="userSpaceOnUse" color-interpolation-filters="sRGB">
<feFlood flood-opacity="0" result="BackgroundImageFix"/>
<feColorMatrix in="SourceAlpha" type="matrix" values="0 0 0 0 0 0 0 0 0 0 0 0 0 0 0 0 0 0 127 0" result="hardAlpha"/>
<feOffset dy="2"/>
<feGaussianBlur stdDeviation="2.5"/>
<feComposite in2="hardAlpha" operator="out"/>
<feColorMatrix type="matrix" values="0 0 0 0 0 0 0 0 0 0 0 0 0 0 0 0 0 0 0.1 0"/>
<feBlend mode="normal" in2="BackgroundImageFix" result="effect1_dropShadow_1037_7646"/>
<feBlend mode="normal" in="SourceGraphic" in2="effect1_dropShadow_1037_7646" result="shape"/>
</filter>
</defs>
</svg>
