<svg width="56" height="49" viewBox="0 0 56 49" fill="none" xmlns="http://www.w3.org/2000/svg">
<path d="M21.8898 0.157715L0.971191 12.1522V36.1522L21.8898 48.1577L42.7973 36.1522V12.1522L21.8898 0.157715Z" fill="#AAD1FF"/>
<path fill-rule="evenodd" clip-rule="evenodd" d="M43.7814 12.5565L42.4336 13.7281L42.7744 15.4811L44.4629 16.0625L45.8106 14.8909L45.4699 13.1379L43.7814 12.5565ZM47.7575 11.1493L43.203 9.58112L39.5677 12.7413L40.4868 17.4697L45.0412 19.0379L48.6766 15.8777L47.7575 11.1493Z" fill="#004AAA"/>
<path fill-rule="evenodd" clip-rule="evenodd" d="M40.736 21.3558L39.3882 22.5274L39.729 24.2804L41.4175 24.8618L42.7652 23.6902L42.4245 21.9372L40.736 21.3558ZM44.7121 19.9486L40.1576 18.3804L36.5223 21.5406L37.4414 26.2689L41.9958 27.8372L45.6312 24.677L44.7121 19.9486Z" fill="#004AAA"/>
<path fill-rule="evenodd" clip-rule="evenodd" d="M34.6157 14.3385L33.2679 15.51L33.6087 17.263L35.2972 17.8444L36.6449 16.6728L36.3042 14.9199L34.6157 14.3385ZM38.5918 12.9313L34.0373 11.3631L30.402 14.5232L31.3211 19.2516L35.8755 20.8198L39.5109 17.6597L38.5918 12.9313Z" fill="#004AAA"/>
<path fill-rule="evenodd" clip-rule="evenodd" d="M28.4941 7.3211L27.1463 8.49268L27.4871 10.2457L29.1756 10.8271L30.5233 9.65547L30.1826 7.9025L28.4941 7.3211ZM32.4702 5.91392L27.9157 4.3457L24.2804 7.50586L25.1995 12.2342L29.7539 13.8025L33.3893 10.6423L32.4702 5.91392Z" fill="#004AAA"/>
<path fill-rule="evenodd" clip-rule="evenodd" d="M31.569 23.1376L30.2212 24.3092L30.562 26.0621L32.2505 26.6435L33.5982 25.472L33.2575 23.719L31.569 23.1376ZM35.5451 21.7304L30.9906 20.1622L27.3553 23.3223L28.2744 28.0507L32.8288 29.6189L36.4642 26.4588L35.5451 21.7304Z" fill="#004AAA"/>
<path d="M48.1485 32.8136H25.2323C24.6023 32.8136 24.051 32.3674 23.946 31.7374C20.8748 14.5961 20.166 10.6849 20.1135 10.4224C20.0873 10.2649 20.061 10.2124 20.061 10.2124C19.956 10.1336 19.746 10.0549 19.5098 10.0549H16.2285C15.4935 10.0549 14.916 9.47738 14.916 8.74238C14.916 8.00738 15.4935 7.42988 16.2285 7.42988H19.5098C20.271 7.42988 21.0323 7.66613 21.5835 8.08613C21.8985 8.32238 22.1085 8.55863 22.2923 8.84738C22.476 9.13613 22.6073 9.47738 22.686 9.92363C22.7648 10.2911 23.841 16.3549 26.3348 30.1886H47.0723L50.1435 14.1761C50.2223 13.8349 50.406 13.5461 50.6948 13.3361C50.9835 13.1524 51.351 13.0736 51.666 13.1261C52.0073 13.2049 52.3223 13.3886 52.506 13.6774C52.6898 13.9661 52.7685 14.3074 52.716 14.6749L49.4348 31.7374C49.3035 32.3674 48.7785 32.8136 48.1485 32.8136Z" fill="#004AAA"/>
<path d="M27.0435 43.9699C24.5235 43.9699 22.4498 41.8961 22.4498 39.3761C22.4498 36.8561 24.4973 34.7824 27.0435 34.7824C29.5898 34.7824 31.611 36.8561 31.611 39.3761C31.611 41.8961 29.5635 43.9699 27.0435 43.9699ZM27.0435 37.3811C25.9673 37.3811 25.0748 38.2736 25.0748 39.3499C25.0748 40.4261 25.941 41.3186 27.0435 41.3186C28.146 41.3186 29.0123 40.4261 29.0123 39.3499C29.0123 38.2736 28.146 37.3811 27.0435 37.3811Z" fill="#004AAA"/>
<path d="M46.6523 43.9699C44.1323 43.9699 42.0585 41.8961 42.0585 39.3761C42.0585 36.8561 44.106 34.7824 46.6523 34.7824C49.1985 34.7824 51.2198 36.8561 51.2198 39.3761C51.2198 41.8961 49.1723 43.9699 46.6523 43.9699ZM46.6523 37.3811C45.576 37.3811 44.6835 38.2736 44.6835 39.3499C44.6835 40.4261 45.5498 41.3186 46.6523 41.3186C47.7548 41.3186 48.621 40.4261 48.621 39.3499C48.621 38.2736 47.7548 37.3811 46.6523 37.3811Z" fill="#004AAA"/>
</svg>
