<svg width="56" height="49" viewBox="0 0 56 49" fill="none" xmlns="http://www.w3.org/2000/svg">
<path d="M21.8898 0.157715L0.971191 12.1522V36.1522L21.8898 48.1577L42.7973 36.1522V12.1522L21.8898 0.157715Z" fill="#AAD1FF"/>
<path d="M33.8242 7.09521C24.9927 7.09521 18.0742 11.1312 18.0742 16.2827V32.0327C18.0742 37.1843 24.9927 41.2202 33.8242 41.2202C42.6557 41.2202 49.5742 37.1843 49.5742 32.0327V16.2827C49.5742 11.1312 42.6557 7.09521 33.8242 7.09521ZM46.9492 24.1577C46.9492 25.736 45.6564 27.3454 43.4038 28.5743C40.8674 29.9573 37.4648 30.7202 33.8242 30.7202C30.1837 30.7202 26.781 29.9573 24.2446 28.5743C21.992 27.3454 20.6992 25.736 20.6992 24.1577V21.4277C23.4981 23.8887 28.2838 25.4702 33.8242 25.4702C39.3646 25.4702 44.1503 23.8821 46.9492 21.4277V24.1577ZM24.2446 11.8662C26.781 10.4831 30.1837 9.72021 33.8242 9.72021C37.4648 9.72021 40.8674 10.4831 43.4038 11.8662C45.6564 13.095 46.9492 14.7044 46.9492 16.2827C46.9492 17.861 45.6564 19.4704 43.4038 20.6993C40.8674 22.0823 37.4648 22.8452 33.8242 22.8452C30.1837 22.8452 26.781 22.0823 24.2446 20.6993C21.992 19.4704 20.6992 17.861 20.6992 16.2827C20.6992 14.7044 21.992 13.095 24.2446 11.8662ZM43.4038 36.4493C40.8674 37.8323 37.4648 38.5952 33.8242 38.5952C30.1837 38.5952 26.781 37.8323 24.2446 36.4493C21.992 35.2204 20.6992 33.611 20.6992 32.0327V29.3027C23.4981 31.7637 28.2838 33.3452 33.8242 33.3452C39.3646 33.3452 44.1503 31.7571 46.9492 29.3027V32.0327C46.9492 33.611 45.6564 35.2204 43.4038 36.4493Z" fill="#004AAA"/>
</svg>
