<svg width="56" height="49" viewBox="0 0 56 49" fill="none" xmlns="http://www.w3.org/2000/svg">
<path d="M21.8898 0.157715L0.971191 12.1522V36.1522L21.8898 48.1577L42.7973 36.1522V12.1522L21.8898 0.157715Z" fill="#AAD1FF"/>
<path d="M46.9492 25.4702H20.6992C20.003 25.4702 19.3353 25.7468 18.8431 26.2391C18.3508 26.7313 18.0742 27.399 18.0742 28.0952V35.9702C18.0742 36.6664 18.3508 37.3341 18.8431 37.8264C19.3353 38.3187 20.003 38.5952 20.6992 38.5952H46.9492C47.6454 38.5952 48.3131 38.3187 48.8054 37.8264C49.2977 37.3341 49.5742 36.6664 49.5742 35.9702V28.0952C49.5742 27.399 49.2977 26.7313 48.8054 26.2391C48.3131 25.7468 47.6454 25.4702 46.9492 25.4702ZM46.9492 35.9702H20.6992V28.0952H46.9492V35.9702ZM46.9492 9.72021H20.6992C20.003 9.72021 19.3353 9.99678 18.8431 10.4891C18.3508 10.9813 18.0742 11.649 18.0742 12.3452V20.2202C18.0742 20.9164 18.3508 21.5841 18.8431 22.0764C19.3353 22.5687 20.003 22.8452 20.6992 22.8452H46.9492C47.6454 22.8452 48.3131 22.5687 48.8054 22.0764C49.2977 21.5841 49.5742 20.9164 49.5742 20.2202V12.3452C49.5742 11.649 49.2977 10.9813 48.8054 10.4891C48.3131 9.99678 47.6454 9.72021 46.9492 9.72021ZM46.9492 20.2202H20.6992V12.3452H46.9492V20.2202ZM44.3242 16.2827C44.3242 16.6721 44.2088 17.0527 43.9924 17.3765C43.7761 17.7003 43.4686 17.9526 43.1089 18.1016C42.7491 18.2506 42.3533 18.2896 41.9714 18.2136C41.5895 18.1377 41.2387 17.9502 40.9634 17.6748C40.688 17.3995 40.5005 17.0487 40.4245 16.6668C40.3486 16.2849 40.3876 15.889 40.5366 15.5293C40.6856 15.1696 40.9379 14.8621 41.2617 14.6458C41.5854 14.4294 41.9661 14.314 42.3555 14.314C42.8776 14.314 43.3784 14.5214 43.7476 14.8906C44.1168 15.2598 44.3242 15.7606 44.3242 16.2827ZM44.3242 32.0327C44.3242 32.4221 44.2088 32.8027 43.9924 33.1265C43.7761 33.4503 43.4686 33.7026 43.1089 33.8516C42.7491 34.0006 42.3533 34.0396 41.9714 33.9636C41.5895 33.8877 41.2387 33.7002 40.9634 33.4248C40.688 33.1495 40.5005 32.7987 40.4245 32.4168C40.3486 32.0349 40.3876 31.639 40.5366 31.2793C40.6856 30.9196 40.9379 30.6121 41.2617 30.3958C41.5854 30.1794 41.9661 30.064 42.3555 30.064C42.8776 30.064 43.3784 30.2714 43.7476 30.6406C44.1168 31.0098 44.3242 31.5106 44.3242 32.0327Z" fill="#004AAA"/>
</svg>
