<svg width="56" height="49" viewBox="0 0 56 49" fill="none" xmlns="http://www.w3.org/2000/svg">
<path d="M21.8898 0.157715L0.971191 12.1522V36.1522L21.8898 48.1577L42.7973 36.1522V12.1522L21.8898 0.157715Z" fill="#AAD1FF"/>
<path d="M50.8867 30.7202H49.5742V14.9702C49.5742 13.9259 49.1594 12.9244 48.421 12.186C47.6825 11.4476 46.681 11.0327 45.6367 11.0327H22.0117C20.9674 11.0327 19.9659 11.4476 19.2275 12.186C18.4891 12.9244 18.0742 13.9259 18.0742 14.9702V30.7202H16.7617C16.4136 30.7202 16.0798 30.8585 15.8336 31.1046C15.5875 31.3508 15.4492 31.6846 15.4492 32.0327V34.6577C15.4492 35.702 15.8641 36.7035 16.6025 37.4419C17.3409 38.1804 18.3424 38.5952 19.3867 38.5952H48.2617C49.306 38.5952 50.3075 38.1804 51.046 37.4419C51.7844 36.7035 52.1992 35.702 52.1992 34.6577V32.0327C52.1992 31.6846 52.0609 31.3508 51.8148 31.1046C51.5687 30.8585 51.2348 30.7202 50.8867 30.7202ZM20.6992 14.9702C20.6992 14.6221 20.8375 14.2883 21.0836 14.0421C21.3298 13.796 21.6636 13.6577 22.0117 13.6577H45.6367C45.9848 13.6577 46.3187 13.796 46.5648 14.0421C46.8109 14.2883 46.9492 14.6221 46.9492 14.9702V30.7202H20.6992V14.9702ZM49.5742 34.6577C49.5742 35.0058 49.4359 35.3397 49.1898 35.5858C48.9437 35.8319 48.6098 35.9702 48.2617 35.9702H19.3867C19.0386 35.9702 18.7048 35.8319 18.4586 35.5858C18.2125 35.3397 18.0742 35.0058 18.0742 34.6577V33.3452H49.5742V34.6577ZM37.7617 17.5952C37.7617 17.9433 37.6234 18.2772 37.3773 18.5233C37.1312 18.7694 36.7973 18.9077 36.4492 18.9077H31.1992C30.8511 18.9077 30.5173 18.7694 30.2711 18.5233C30.025 18.2772 29.8867 17.9433 29.8867 17.5952C29.8867 17.2471 30.025 16.9133 30.2711 16.6671C30.5173 16.421 30.8511 16.2827 31.1992 16.2827H36.4492C36.7973 16.2827 37.1312 16.421 37.3773 16.6671C37.6234 16.9133 37.7617 17.2471 37.7617 17.5952Z" fill="#004AAA"/>
</svg>
