<svg width="82" height="83" viewBox="0 0 82 83" fill="none" xmlns="http://www.w3.org/2000/svg">
<g filter="url(#filter0_d_1037_7644)">
<rect x="5" y="3.15771" width="72" height="72" rx="36" fill="white"/>
<path d="M41 24.5327C38.1075 24.5327 35.2799 25.3905 32.8748 26.9975C30.4697 28.6045 28.5952 30.8886 27.4883 33.561C26.3813 36.2333 26.0917 39.1739 26.656 42.0109C27.2203 44.8479 28.6132 47.4538 30.6586 49.4992C32.7039 51.5445 35.3098 52.9374 38.1468 53.5017C40.9838 54.066 43.9244 53.7764 46.5968 52.6695C49.2691 51.5625 51.5532 49.688 53.1602 47.2829C54.7673 44.8779 55.625 42.0503 55.625 39.1577C55.6209 35.2802 54.0788 31.5626 51.3369 28.8208C48.5951 26.079 44.8775 24.5368 41 24.5327ZM37.2917 44.7827H44.7083C43.9531 47.3618 42.6875 49.6863 41 51.5172C39.3125 49.6863 38.0469 47.3618 37.2917 44.7827ZM36.7813 42.5327C36.4081 40.2982 36.4081 38.0172 36.7813 35.7827H45.2188C45.5919 38.0172 45.5919 40.2982 45.2188 42.5327H36.7813ZM28.625 39.1577C28.624 38.0165 28.7816 36.8806 29.0933 35.7827H34.5017C34.1661 38.0202 34.1661 40.2952 34.5017 42.5327H29.0933C28.7816 41.4348 28.624 40.299 28.625 39.1577ZM44.7083 33.5327H37.2917C38.0469 30.9537 39.3125 28.6291 41 26.7982C42.6875 28.6291 43.9531 30.9537 44.7083 33.5327ZM47.4983 35.7827H52.9067C53.5311 37.9894 53.5311 40.326 52.9067 42.5327H47.4983C47.8339 40.2952 47.8339 38.0202 47.4983 35.7827ZM52.0208 33.5327H47.0384C46.4643 31.2736 45.5002 29.1321 44.1894 27.2046C45.864 27.6546 47.4259 28.4501 48.7747 29.54C50.1234 30.6298 51.2292 31.9899 52.0208 33.5327ZM37.8106 27.2046C36.4999 29.1321 35.5357 31.2736 34.9616 33.5327H29.9792C30.7708 31.9899 31.8766 30.6298 33.2253 29.54C34.5741 28.4501 36.136 27.6546 37.8106 27.2046ZM29.9792 44.7827H34.9616C35.5357 47.0418 36.4999 49.1834 37.8106 51.1108C36.136 50.6608 34.5741 49.8653 33.2253 48.7754C31.8766 47.6856 30.7708 46.3255 29.9792 44.7827ZM44.1894 51.1108C45.5002 49.1834 46.4643 47.0418 47.0384 44.7827H52.0208C51.2292 46.3255 50.1234 47.6856 48.7747 48.7754C47.4259 49.8653 45.864 50.6608 44.1894 51.1108Z" fill="#464646"/>
</g>
<defs>
<filter id="filter0_d_1037_7644" x="0" y="0.157715" width="82" height="82" filterUnits="userSpaceOnUse" color-interpolation-filters="sRGB">
<feFlood flood-opacity="0" result="BackgroundImageFix"/>
<feColorMatrix in="SourceAlpha" type="matrix" values="0 0 0 0 0 0 0 0 0 0 0 0 0 0 0 0 0 0 127 0" result="hardAlpha"/>
<feOffset dy="2"/>
<feGaussianBlur stdDeviation="2.5"/>
<feComposite in2="hardAlpha" operator="out"/>
<feColorMatrix type="matrix" values="0 0 0 0 0 0 0 0 0 0 0 0 0 0 0 0 0 0 0.1 0"/>
<feBlend mode="normal" in2="BackgroundImageFix" result="effect1_dropShadow_1037_7644"/>
<feBlend mode="normal" in="SourceGraphic" in2="effect1_dropShadow_1037_7644" result="shape"/>
</filter>
</defs>
</svg>
