<?xml version="1.0" encoding="iso-8859-1"?>
<!-- Generator: Adobe Illustrator 19.0.0, SVG Export Plug-In . SVG Version: 6.00 Build 0)  -->
<svg version="1.1" id="Capa_1" xmlns="http://www.w3.org/2000/svg" xmlns:xlink="http://www.w3.org/1999/xlink" x="0px" y="0px"
	 viewBox="0 0 223.34 223.34" style="enable-background:new 0 0 223.34 223.34;" xml:space="preserve">
<path d="M213.379,91.334c-2.997-3.704-5.829-7.202-6.891-10.473c-1.142-3.515-0.919-8.169-0.684-13.096
	c0.365-7.628,0.742-15.516-3.789-21.743c-4.578-6.29-12.585-8.46-19.648-10.375c-4.723-1.28-9.184-2.489-12.109-4.619
	c-2.865-2.085-5.358-5.917-7.998-9.975c-4.019-6.178-8.573-13.18-16.074-15.615c-1.778-0.577-3.701-0.87-5.716-0.87
	c-5.359,0-10.704,2.024-15.873,3.981c-4.685,1.774-9.109,3.45-12.927,3.45s-8.242-1.676-12.926-3.45
	c-5.169-1.957-10.513-3.981-15.873-3.981c-2.014,0-3.937,0.293-5.715,0.87C69.654,7.875,65.1,14.877,61.08,21.055
	c-2.639,4.057-5.132,7.889-7.996,9.973c-2.926,2.13-7.387,3.339-12.109,4.619c-7.064,1.915-15.071,4.085-19.648,10.375
	c-4.531,6.227-4.154,14.115-3.79,21.744c0.235,4.927,0.458,9.581-0.684,13.096c-1.062,3.27-3.893,6.769-6.891,10.472
	C5.292,97.102,0,103.641,0,111.67s5.292,14.567,9.961,20.336c2.998,3.704,5.83,7.202,6.892,10.473
	c1.142,3.515,0.919,8.168,0.684,13.095c-0.365,7.629-0.743,15.518,3.789,21.744c4.578,6.29,12.585,8.46,19.648,10.375
	c4.723,1.28,9.184,2.489,12.109,4.619c2.864,2.084,5.357,5.916,7.996,9.973c4.02,6.179,8.574,13.181,16.076,15.617
	c1.779,0.577,3.702,0.87,5.716,0.87c5.359-0.001,10.704-2.024,15.872-3.981c4.685-1.774,9.109-3.45,12.927-3.45
	c3.818,0,8.243,1.676,12.928,3.45c5.168,1.957,10.512,3.981,15.872,3.981c2.014,0,3.937-0.293,5.715-0.87
	c7.502-2.437,12.057-9.438,16.076-15.616c2.639-4.057,5.132-7.889,7.996-9.973c2.926-2.13,7.387-3.339,12.109-4.619
	c7.063-1.915,15.07-4.085,19.648-10.375c4.532-6.227,4.154-14.115,3.79-21.744c-0.235-4.927-0.458-9.581,0.684-13.096
	c1.062-3.27,3.893-6.768,6.891-10.472c4.669-5.769,9.961-12.308,9.961-20.337S218.048,97.103,213.379,91.334z M76.337,138.67H64.124
	l-19.787-32.745v32.745h-12v-54h11.876l19.124,32.603V84.67h13V138.67z M121.337,94.67h-25v11h21v10h-21v13h25v10h-37v-54h37V94.67z
	 M178.169,138.67h-11.471l-8.773-31.573l-8.773,31.573H137.68l-12.726-54h12.609l6.779,32.332l8.844-32.332h9.44l8.916,32.355
	l6.742-32.355h12.574L178.169,138.67z"/>
<g>
</g>
<g>
</g>
<g>
</g>
<g>
</g>
<g>
</g>
<g>
</g>
<g>
</g>
<g>
</g>
<g>
</g>
<g>
</g>
<g>
</g>
<g>
</g>
<g>
</g>
<g>
</g>
<g>
</g>
</svg>
